<?xml version="1.0" encoding="UTF-8" standalone="no"?><!DOCTYPE svg PUBLIC "-//W3C//DTD SVG 1.1//EN" "http://www.w3.org/Graphics/SVG/1.1/DTD/svg11.dtd"><svg width="100%" height="100%" viewBox="0 0 40 40" version="1.1" xmlns="http://www.w3.org/2000/svg" xmlns:xlink="http://www.w3.org/1999/xlink" xml:space="preserve" xmlns:serif="http://www.serif.com/" style="fill-rule:evenodd;clip-rule:evenodd;stroke-linejoin:round;stroke-miterlimit:1.41421;"><g id="Facebook"><rect x="0" y="0" width="40" height="40" style="fill:none;"/><path id="Facebook1" serif:id="Facebook" d="M15.229,8.961c0,0.908 0,4.958 0,4.958l-3.632,0l0,6.064l3.632,0l0,18.017l7.463,0l0,-18.017l5.007,0c0,0 0.469,-2.907 0.696,-6.086c-0.651,0 -5.675,0 -5.675,0c0,0 0,-3.527 0,-4.145c0,-0.62 0.813,-1.454 1.618,-1.454c0.802,0 2.496,0 4.065,0c0,-0.825 0,-3.677 0,-6.312c-2.094,0 -4.477,0 -5.528,0c-7.83,0 -7.646,6.069 -7.646,6.975Z" style="fill:#6eb1e1;fill-rule:nonzero;"/></g></svg>