<?xml version="1.0" encoding="UTF-8" standalone="no"?><!DOCTYPE svg PUBLIC "-//W3C//DTD SVG 1.1//EN" "http://www.w3.org/Graphics/SVG/1.1/DTD/svg11.dtd"><svg width="100%" height="100%" viewBox="0 0 40 40" version="1.1" xmlns="http://www.w3.org/2000/svg" xmlns:xlink="http://www.w3.org/1999/xlink" xml:space="preserve" xmlns:serif="http://www.serif.com/" style="fill-rule:evenodd;clip-rule:evenodd;stroke-linejoin:round;stroke-miterlimit:1.41421;"><g id="Google"><rect x="0" y="0" width="40" height="40" style="fill:none;"/><path id="Google1" serif:id="Google" d="M20.075,16.854l16.895,-0.005c0.203,1.019 0.309,2.07 0.309,3.144c0,9.191 -7.743,16.653 -17.279,16.653c-9.536,0 -17.278,-7.462 -17.278,-16.653c0,-9.191 7.742,-16.653 17.278,-16.653c3.963,0 7.616,1.289 10.532,3.455l-3.958,5.085c-1.813,-1.367 -4.095,-2.182 -6.574,-2.182c-5.896,0 -10.682,4.613 -10.682,10.295c0,5.683 4.786,10.296 10.682,10.296c4.699,0 8.694,-2.931 10.122,-6.998l-10.047,0l0,-6.437Z" style="fill:#6eb1e1;"/></g></svg>