<?xml version="1.0" encoding="UTF-8" standalone="no"?><!DOCTYPE svg PUBLIC "-//W3C//DTD SVG 1.1//EN" "http://www.w3.org/Graphics/SVG/1.1/DTD/svg11.dtd"><svg width="100%" height="100%" viewBox="0 0 40 40" version="1.1" xmlns="http://www.w3.org/2000/svg" xmlns:xlink="http://www.w3.org/1999/xlink" xml:space="preserve" xmlns:serif="http://www.serif.com/" style="fill-rule:evenodd;clip-rule:evenodd;stroke-linejoin:round;stroke-miterlimit:1.41421;"><g id="Instagram"><rect x="0" y="0" width="40" height="40" style="fill:none;"/><g><path d="M27.77,3.249l-15.813,0c-5.37,0 -9.739,4.146 -9.739,9.241l0,15.006c0,5.096 4.369,9.242 9.739,9.242l15.813,0c5.37,0 9.739,-4.146 9.739,-9.242l0,-15.006c0,-5.095 -4.369,-9.241 -9.739,-9.241Zm6.608,24.247c0,3.458 -2.964,6.27 -6.608,6.27l-15.813,0c-3.644,0.001 -6.608,-2.812 -6.608,-6.27l0,-15.006c0,-3.457 2.964,-6.27 6.608,-6.27l15.813,0c3.643,0 6.608,2.813 6.608,6.27l0,15.006l0,0Z" style="fill:#6eb1e1;fill-rule:nonzero;"/><path d="M19.863,11.364c-5.014,0 -9.093,3.871 -9.093,8.63c0,4.758 4.079,8.629 9.093,8.629c5.015,0 9.094,-3.871 9.094,-8.629c0,-4.759 -4.079,-8.63 -9.094,-8.63Zm0,14.287c-3.287,0 -5.962,-2.538 -5.962,-5.658c0,-3.119 2.675,-5.658 5.962,-5.658c3.288,0 5.963,2.539 5.963,5.658c0,3.12 -2.675,5.658 -5.963,5.658Z" style="fill:#6eb1e1;fill-rule:nonzero;"/><path d="M29.339,8.845c-0.604,0 -1.196,0.232 -1.622,0.638c-0.429,0.404 -0.675,0.966 -0.675,1.541c0,0.572 0.247,1.135 0.675,1.541c0.425,0.404 1.018,0.638 1.622,0.638c0.605,0 1.196,-0.234 1.624,-0.638c0.427,-0.406 0.672,-0.969 0.672,-1.541c0,-0.575 -0.245,-1.137 -0.672,-1.541c-0.426,-0.406 -1.019,-0.638 -1.624,-0.638Z" style="fill:#6eb1e1;fill-rule:nonzero;"/></g></g></svg>