<?xml version="1.0" encoding="UTF-8" standalone="no"?><!DOCTYPE svg PUBLIC "-//W3C//DTD SVG 1.1//EN" "http://www.w3.org/Graphics/SVG/1.1/DTD/svg11.dtd"><svg width="100%" height="100%" viewBox="0 0 40 40" version="1.1" xmlns="http://www.w3.org/2000/svg" xmlns:xlink="http://www.w3.org/1999/xlink" xml:space="preserve" xmlns:serif="http://www.serif.com/" style="fill-rule:evenodd;clip-rule:evenodd;stroke-linejoin:round;stroke-miterlimit:1.41421;"><g id="Linkedin"><rect x="0" y="0" width="40" height="40" style="fill:none;"/><path id="LinkedIn" d="M38,23.891l0,13.309l-7.716,0l0,-12.418c0,-3.12 -1.116,-5.248 -3.909,-5.248c-2.132,0 -3.401,1.434 -3.959,2.822c-0.204,0.496 -0.256,1.187 -0.256,1.881l0,12.963l-7.719,0c0,0 0.104,-21.032 0,-23.211l7.718,0l0,3.29c-0.016,0.025 -0.036,0.051 -0.051,0.075l0.051,0l0,-0.075c1.025,-1.579 2.857,-3.835 6.955,-3.835c5.079,-0.001 8.886,3.317 8.886,10.447Zm-31.633,-21.091c-2.64,0 -4.367,1.732 -4.367,4.009c0,2.228 1.677,4.013 4.265,4.013l0.051,0c2.692,0 4.366,-1.784 4.366,-4.013c-0.051,-2.277 -1.674,-4.009 -4.315,-4.009Zm-3.909,34.4l7.716,0l0,-23.211l-7.716,0l0,23.211Z" style="fill:#6eb1e1;fill-rule:nonzero;"/></g></svg>