<?xml version="1.0" encoding="UTF-8" standalone="no"?><!DOCTYPE svg PUBLIC "-//W3C//DTD SVG 1.1//EN" "http://www.w3.org/Graphics/SVG/1.1/DTD/svg11.dtd"><svg width="100%" height="100%" viewBox="0 0 40 40" version="1.1" xmlns="http://www.w3.org/2000/svg" xmlns:xlink="http://www.w3.org/1999/xlink" xml:space="preserve" xmlns:serif="http://www.serif.com/" style="fill-rule:evenodd;clip-rule:evenodd;stroke-linejoin:round;stroke-miterlimit:1.41421;"><g id="twitter"><rect id="Twitter" x="0" y="0" width="40" height="40" style="fill:none;"/><path id="twitter-logo-silhouette" d="M38,8.839c-1.325,0.587 -2.747,0.985 -4.24,1.163c1.525,-0.914 2.692,-2.362 3.246,-4.083c-1.431,0.846 -3.01,1.46 -4.693,1.793c-1.347,-1.438 -3.264,-2.333 -5.39,-2.333c-4.079,0 -7.385,3.307 -7.385,7.383c0,0.578 0.065,1.143 0.191,1.683c-6.137,-0.309 -11.579,-3.249 -15.221,-7.716c-0.636,1.088 -0.999,2.357 -0.999,3.711c0,2.563 1.305,4.823 3.285,6.146c-1.21,-0.04 -2.349,-0.373 -3.345,-0.927l0,0.093c0,3.576 2.546,6.562 5.923,7.241c-0.619,0.167 -1.271,0.259 -1.946,0.259c-0.477,0 -0.938,-0.047 -1.39,-0.137c0.94,2.935 3.667,5.07 6.897,5.129c-2.526,1.979 -5.712,3.156 -9.172,3.156c-0.596,0 -1.183,-0.036 -1.761,-0.101c3.269,2.098 7.149,3.322 11.32,3.322c13.585,0 21.011,-11.252 21.011,-21.011l-0.025,-0.956c1.451,-1.035 2.706,-2.335 3.694,-3.815Z" style="fill:#6eb1e1;fill-rule:nonzero;"/></g></svg>