<?xml version="1.0" encoding="UTF-8" standalone="no"?><!DOCTYPE svg PUBLIC "-//W3C//DTD SVG 1.1//EN" "http://www.w3.org/Graphics/SVG/1.1/DTD/svg11.dtd"><svg width="100%" height="100%" viewBox="0 0 40 40" version="1.1" xmlns="http://www.w3.org/2000/svg" xmlns:xlink="http://www.w3.org/1999/xlink" xml:space="preserve" xmlns:serif="http://www.serif.com/" style="fill-rule:evenodd;clip-rule:evenodd;stroke-linejoin:round;stroke-miterlimit:1.41421;"><g id="YouTube"><rect x="0" y="0" width="40" height="40" style="fill:none;"/><path id="youtube" d="M35.869,9.968c-1.243,-1.477 -3.537,-2.08 -7.918,-2.08l-15.903,0c-4.481,0 -6.814,0.641 -8.051,2.214c-1.207,1.533 -1.207,3.792 -1.207,6.919l0,5.959c0,6.057 1.432,9.132 9.258,9.132l15.903,0c3.8,0 5.905,-0.532 7.267,-1.835c1.396,-1.337 1.992,-3.519 1.992,-7.297l0,-5.959c0,-3.298 -0.093,-5.57 -1.341,-7.053Zm-10.981,10.855l-7.222,3.774c-0.161,0.084 -0.338,0.126 -0.514,0.126c-0.2,0 -0.399,-0.054 -0.575,-0.16c-0.332,-0.202 -0.535,-0.562 -0.535,-0.95l0,-7.524c0,-0.388 0.202,-0.748 0.534,-0.949c0.331,-0.202 0.744,-0.215 1.088,-0.037l7.221,3.75c0.368,0.191 0.598,0.57 0.599,0.984c0,0.414 -0.229,0.794 -0.596,0.986Z" style="fill:#6eb1e1;fill-rule:nonzero;"/></g></svg>